<svg width="100" height="63" viewBox="0 0 100 63" fill="none" xmlns="http://www.w3.org/2000/svg">
<g clip-path="url(#clip0_271_3597)">
<path d="M2.69914 61.9622V50.9264C2.69914 50.11 2.8811 49.7875 3.71005 49.4448C4.77152 49.0215 6.30811 48.5479 8.77475 48.5479C12.4949 48.5479 14.1629 50.5031 14.1629 53.7886V61.9622C14.1629 62.4359 14.0012 62.5971 13.5261 62.5971H12.4343C11.9591 62.5971 11.7974 62.4359 11.7974 61.9622V53.8692C11.7974 51.783 10.7359 50.6945 8.45126 50.6945C7.14717 50.6945 6.11604 50.9364 5.37807 51.1985C5.11523 51.3093 5.05457 51.4605 5.05457 51.6722V61.9622C5.05457 62.4359 4.89283 62.5971 4.4177 62.5971H3.3259C2.85077 62.5971 2.68903 62.4359 2.68903 61.9622H2.69914Z" fill="white"/>
<path d="M18.7323 57.4975V54.2119C18.7323 50.6442 20.8249 48.5479 24.727 48.5479C28.6292 48.5479 30.7218 50.9062 30.7218 54.0204V55.5523C30.7218 56.1066 30.4792 56.4795 29.7715 56.4795H21.0978V57.7494C21.0978 59.7651 22.3413 60.9543 24.6563 60.9543C26.5669 60.9543 27.7093 60.2186 28.3765 59.0999C28.6898 58.6766 28.9325 58.596 29.4076 58.858L30.1253 59.2309C30.5803 59.4728 30.651 59.8155 30.368 60.2589C29.4177 61.8715 27.7194 62.9801 24.6664 62.9801C20.5317 62.9801 18.7525 60.7024 18.7525 57.4773L18.7323 57.4975ZM28.3663 54.6654V53.8995C28.3663 51.8133 27.1431 50.5635 24.727 50.5635C22.3109 50.5635 21.0877 51.8032 21.0877 53.8995V54.6654H28.3562H28.3663Z" fill="white"/>
<path d="M34.5734 59.7449C34.4116 59.3216 34.5228 59.0596 34.9676 58.8984L35.8977 58.5758C36.2919 58.4448 36.5042 58.4952 36.7165 58.9689C37.2523 60.3698 38.4452 60.904 40.2952 60.904C42.5495 60.904 43.6413 60.1884 43.6413 58.8681C43.6413 57.2757 42.317 56.9935 40.0829 56.7819C37.4242 56.5199 34.725 56.0663 34.725 52.6498C34.725 50.1906 36.5042 48.5479 40.0627 48.5479C43.1156 48.5479 44.7836 49.6867 45.6126 51.4101C45.8552 51.8838 45.7137 52.1458 45.2689 52.3373L44.3692 52.7102C43.9143 52.8916 43.7828 52.8412 43.4897 52.418C43.0145 51.39 42.1654 50.6744 40.1233 50.6744C38.0813 50.6744 37.0703 51.3396 37.0703 52.6094C37.0703 54.3026 38.4755 54.5143 40.6793 54.7259C43.702 54.9879 45.9563 55.6531 45.9563 58.7774C45.9563 61.2869 44.076 63.0103 40.3558 63.0103C37.3534 63.0103 35.4225 61.9219 34.5734 59.755V59.7449Z" fill="white"/>
<path d="M51.7388 56.9936V51.1179H49.535C49.0598 51.1179 48.8981 50.9567 48.8981 50.5132V49.586C48.8981 49.1123 49.0598 48.9511 49.535 48.9511H51.7388V46.4113C51.7388 45.9376 51.9005 45.7764 52.3756 45.7764H53.4674C53.9426 45.7764 54.1043 45.9376 54.1043 46.4113V48.9511H57.5819C58.057 48.9511 58.2187 49.1123 58.2187 49.586V50.5132C58.2187 50.9667 58.057 51.1179 57.5819 51.1179H54.1043V56.913C54.1043 59.8256 54.9535 60.3497 57.5515 60.3497C58.0267 60.3497 58.1884 60.511 58.1884 61.0149V61.9421C58.1884 62.4158 58.0267 62.6073 57.5515 62.6073C53.2551 62.6073 51.7388 61.418 51.7388 56.9936Z" fill="white"/>
<path d="M61.666 57.9409V53.5971C61.666 50.4728 63.8698 48.5479 67.6101 48.5479C71.3505 48.5479 73.5847 50.4829 73.5847 53.5971V57.9409C73.5847 61.0652 71.4314 62.9902 67.6101 62.9902C63.7889 62.9902 61.666 61.0551 61.666 57.9409ZM67.6101 60.8536C69.8948 60.8536 71.2191 59.7651 71.2191 57.9409V53.5971C71.2191 51.7427 69.8948 50.6845 67.6101 50.6845C65.3255 50.6845 64.0315 51.7427 64.0315 53.5971V57.9409C64.0315 59.7651 65.4165 60.8536 67.6101 60.8536Z" fill="white"/>
<path d="M77.9316 61.4381V61.2265C77.9316 60.1985 78.245 59.876 79.2863 59.876H79.4682C80.4994 59.876 80.8229 60.1884 80.8229 61.2265V61.4381C80.8229 62.4661 80.4994 62.7886 79.4682 62.7886H79.2863C78.2551 62.7886 77.9316 62.4762 77.9316 61.4381Z" fill="white"/>
<path d="M86.2515 62.3045L83.1783 54.8666C83.0469 54.5139 83.1278 54.4232 83.5018 54.4232H83.9769C84.4217 54.4232 84.5329 54.5038 84.6442 54.8061L86.5042 59.412C86.7469 60.0469 86.8985 60.7927 86.949 60.9338H87.0097C87.0703 60.7927 87.2018 60.057 87.4444 59.422L89.3045 54.7961C89.4157 54.4937 89.5067 54.4131 89.9717 54.4131H90.467C90.831 54.4131 90.9118 54.4937 90.7905 54.8465L87.6971 62.2944C87.5859 62.5665 87.4747 62.6471 87.1714 62.6471H86.7873C86.484 62.6471 86.3526 62.5665 86.2414 62.2944L86.2515 62.3045Z" fill="white"/>
<path d="M93.1156 62.244V55.6225C93.1156 55.1287 93.2268 54.9372 93.7222 54.7356C94.359 54.4837 95.279 54.1914 96.765 54.1914C98.9992 54.1914 100 55.3706 100 57.3359V62.244C100 62.5262 99.909 62.627 99.6158 62.627H98.9587C98.6757 62.627 98.5746 62.5363 98.5746 62.244V57.3863C98.5746 56.1265 97.9377 55.4814 96.5628 55.4814C95.7844 55.4814 95.1577 55.6225 94.7129 55.7838C94.5511 55.8443 94.5208 55.945 94.5208 56.066V62.244C94.5208 62.5262 94.4298 62.627 94.1366 62.627H93.4796C93.1965 62.627 93.0954 62.5363 93.0954 62.244H93.1156Z" fill="white"/>
<path d="M15.7097 31.3136C7.0461 31.3136 0 24.2889 0 15.6517C0 7.01456 7.0461 0 15.7097 0C24.3732 0 31.4193 7.02464 31.4193 15.6517C31.4193 24.2788 24.3732 31.3136 15.7097 31.3136ZM15.7097 5.39194C10.0283 5.39194 5.40841 9.99776 5.40841 15.6618C5.40841 21.3259 10.0283 25.9317 15.7097 25.9317C21.391 25.9317 26.0109 21.3259 26.0109 15.6618C26.0109 9.99776 21.3809 5.39194 15.7097 5.39194Z" fill="white"/>
<path d="M35.9684 26.8486H29.5693V33.2283H35.9684V26.8486Z" fill="white"/>
</g>
<defs>
<clipPath id="clip0_271_3597">
<rect width="100" height="63" fill="white"/>
</clipPath>
</defs>
</svg>
