<svg width="128" height="80" viewBox="0 0 128 80" fill="none" xmlns="http://www.w3.org/2000/svg">
<g clip-path="url(#clip0_170_1053)">
<path d="M3.45001 78.691V64.6783C3.45001 63.637 3.69001 63.2305 4.74001 62.7941C6.09001 62.2586 8.06001 61.6537 11.21 61.6537C15.95 61.6537 18.09 64.1428 18.09 68.3079V78.691C18.09 79.2959 17.89 79.4942 17.28 79.4942H15.89C15.28 79.4942 15.08 79.2959 15.08 78.691V68.4071C15.08 65.7494 13.72 64.3709 10.81 64.3709C9.15001 64.3709 7.83001 64.6684 6.88001 65.0056C6.54001 65.1444 6.47001 65.3428 6.47001 65.6105V78.6811C6.47001 79.286 6.27001 79.4843 5.66001 79.4843H4.27001C3.66001 79.4843 3.46001 79.286 3.46001 78.6811L3.45001 78.691Z" fill="#231F20"/>
<path d="M23.91 73.0185V68.8534C23.91 64.3213 26.59 61.6636 31.57 61.6636C36.55 61.6636 39.23 64.6585 39.23 68.6154V70.5591C39.23 71.2632 38.93 71.7392 38.01 71.7392H26.93V73.3557C26.93 75.9043 28.52 77.4216 31.47 77.4216C33.91 77.4216 35.37 76.4795 36.21 75.0713C36.62 74.5358 36.92 74.4366 37.53 74.7639L38.44 75.23C39.02 75.5275 39.12 75.9737 38.74 76.539C37.52 78.5918 35.35 80 31.46 80C26.17 80 23.9 77.1142 23.9 73.0086L23.91 73.0185ZM36.21 69.4186V68.4468C36.21 65.789 34.65 64.2122 31.57 64.2122C28.49 64.2122 26.93 65.789 26.93 68.4468V69.4186H36.21Z" fill="#231F20"/>
<path d="M44.14 75.8746C43.94 75.339 44.07 75.0019 44.65 74.8035L45.84 74.3969C46.35 74.2283 46.62 74.2978 46.89 74.9027C47.57 76.6877 49.09 77.3522 51.46 77.3522C54.34 77.3522 55.73 76.4497 55.73 74.7639C55.73 72.7507 54.04 72.3739 51.19 72.1061C47.8 71.7689 44.35 71.2037 44.35 66.8601C44.35 63.7362 46.62 61.6537 51.16 61.6537C55.06 61.6537 57.19 63.1015 58.24 65.2833C58.54 65.8882 58.38 66.2254 57.8 66.4634L56.65 66.9295C56.07 67.1675 55.9 67.0981 55.53 66.5625C54.92 65.2535 53.84 64.3411 51.23 64.3411C48.62 64.3411 47.33 65.1841 47.33 66.7906C47.33 68.9426 49.13 69.2104 51.94 69.4781C55.8 69.8153 58.68 70.6582 58.68 74.6151C58.68 77.8084 56.27 79.9901 51.53 79.9901C47.7 79.9901 45.23 78.6116 44.14 75.8547V75.8746Z" fill="#231F20"/>
<path d="M66.05 72.3739V64.9163H63.24C62.63 64.9163 62.43 64.718 62.43 64.1428V62.9627C62.43 62.3578 62.63 62.1594 63.24 62.1594H66.05V58.9364C66.05 58.3315 66.25 58.1331 66.86 58.1331H68.25C68.86 58.1331 69.06 58.3315 69.06 58.9364V62.1594H73.5C74.11 62.1594 74.31 62.3578 74.31 62.9627V64.1428C74.31 64.718 74.11 64.9163 73.5 64.9163H69.06V72.2747C69.06 75.9737 70.14 76.6382 73.46 76.6382C74.07 76.6382 74.27 76.8365 74.27 77.4811V78.6612C74.27 79.2662 74.07 79.5042 73.46 79.5042C67.97 79.5042 66.04 77.9968 66.04 72.3838L66.05 72.3739Z" fill="#231F20"/>
<path d="M78.72 73.5837V68.0699C78.72 64.1031 81.53 61.6537 86.31 61.6537C91.09 61.6537 93.93 64.1031 93.93 68.0699V73.5837C93.93 77.5505 91.19 80 86.31 80C81.43 80 78.72 77.5505 78.72 73.5837ZM86.31 77.2828C89.22 77.2828 90.92 75.9043 90.92 73.5837V68.0699C90.92 65.7196 89.23 64.3709 86.31 64.3709C83.39 64.3709 81.74 65.7196 81.74 68.0699V73.5837C81.74 75.9043 83.5 77.2828 86.31 77.2828Z" fill="#231F20"/>
<path d="M99.49 78.0265V77.7588C99.49 76.4498 99.9 76.0432 101.22 76.0432H101.46C102.78 76.0432 103.19 76.4498 103.19 77.7588V78.0265C103.19 79.3356 102.78 79.7422 101.46 79.7422H101.22C99.9 79.7422 99.49 79.3356 99.49 78.0265Z" fill="#231F20"/>
<path d="M110.11 79.1273L106.18 69.6864C106.02 69.2401 106.12 69.1211 106.59 69.1211H107.2C107.77 69.1211 107.91 69.2203 108.05 69.6071L110.43 75.4581C110.74 76.2613 110.94 77.2134 111 77.3919H111.08C111.16 77.2134 111.32 76.2812 111.63 75.4779L114.01 69.6071C114.15 69.2203 114.27 69.1211 114.86 69.1211H115.49C115.96 69.1211 116.06 69.2203 115.9 69.6666L111.95 79.1273C111.81 79.4744 111.66 79.5736 111.28 79.5736H110.79C110.4 79.5736 110.24 79.4744 110.1 79.1273H110.11Z" fill="#231F20"/>
<path d="M118.88 79.0381V70.6285C118.88 70.0037 119.02 69.7657 119.65 69.498C120.46 69.1707 121.64 68.8137 123.53 68.8137C126.38 68.8137 127.66 70.3111 127.66 72.8102V79.048C127.66 79.4149 127.54 79.5339 127.17 79.5339H126.34C125.97 79.5339 125.85 79.4149 125.85 79.048V72.8796C125.85 71.283 125.04 70.4599 123.29 70.4599C122.29 70.4599 121.5 70.6384 120.93 70.8467C120.73 70.926 120.69 71.045 120.69 71.2136V79.0579C120.69 79.4248 120.57 79.5438 120.2 79.5438H119.37C119 79.5438 118.88 79.4248 118.88 79.0579V79.0381Z" fill="#231F20"/>
<path d="M20.05 39.767C8.99 39.767 0 30.8417 0 19.8835C0 8.92525 8.99 0 20.05 0C31.11 0 40.1 8.91533 40.1 19.8835C40.1 30.8516 31.11 39.767 20.05 39.767ZM20.05 6.84269C12.8 6.84269 6.9 12.6937 6.9 19.8835C6.9 27.0733 12.8 32.9243 20.05 32.9243C27.3 32.9243 33.2 27.0733 33.2 19.8835C33.2 12.6937 27.3 6.84269 20.05 6.84269Z" fill="#B0A9A1"/>
<path d="M45.93 34.0945H37.76V42.1966H45.93V34.0945Z" fill="#B0A9A1"/>
</g>
<defs>
<clipPath id="clip0_170_1053">
<rect width="127.66" height="80" fill="white"/>
</clipPath>
</defs>
</svg>
