<svg width="18" height="18" viewBox="0 0 18 18" fill="none" xmlns="http://www.w3.org/2000/svg">
<g clip-path="url(#clip0_170_1069)">
<path d="M13.25 12.3C13.25 12.3 13.35 12.37 13.39 12.41C14.51 13.53 15.64 14.66 16.76 15.78C17.07 16.09 17.1 16.48 16.84 16.77C16.6 17.04 16.22 17.09 15.93 16.88C15.86 16.83 15.8 16.77 15.74 16.72C14.63 15.61 13.52 14.5 12.42 13.4C12.38 13.36 12.34 13.31 12.3 13.26C10.44 14.73 8.35 15.3 6.03 14.84C4.15 14.47 2.63 13.5 1.48 11.96C-0.780002 8.90999 -0.440001 4.61999 2.43 1.97999C5.16 -0.540008 9.33 -0.690008 12.27 1.71999C15.18 4.09999 16.12 8.79999 13.25 12.3ZM7.5 1.38999C4.15 1.37999 1.42 4.08999 1.39 7.47999C1.36 10.83 4.11 13.59 7.49 13.6C10.85 13.61 13.58 10.89 13.6 7.50999C13.62 4.15999 10.88 1.40999 7.5 1.38999Z" fill="#231F20"/>
</g>
<defs>
<clipPath id="clip0_170_1069">
<rect width="17.02" height="17.01" fill="white"/>
</clipPath>
</defs>
</svg>
