<svg width="33" height="12" viewBox="0 0 33 12" fill="none" xmlns="http://www.w3.org/2000/svg">
<path d="M12.5623 1.10795L8.41117 10.9131H5.70931L3.66997 3.08744C3.54575 2.60539 3.44223 2.43103 3.05921 2.2259C2.43809 1.8977 1.42359 1.59 0.533325 1.39513L0.595437 1.10795H4.94326C5.50227 1.10795 5.99916 1.47718 6.12339 2.10282L7.19999 7.77462L9.8708 1.10795H12.5623ZM23.1627 7.71308C23.1731 5.12847 19.5499 4.98488 19.5809 3.8259C19.5809 3.47718 19.9226 3.0977 20.6679 3.00539C21.0302 2.95411 22.0447 2.92334 23.1938 3.44641L23.6389 1.36436C23.0178 1.13872 22.231 0.933594 21.2476 0.933594C18.7217 0.933594 16.9412 2.26693 16.9205 4.17462C16.8998 5.59 18.1938 6.36949 19.1565 6.84129C20.1503 7.32334 20.4919 7.63103 20.4816 8.0618C20.4816 8.71821 19.6845 9.00539 18.9495 9.0259C17.6658 9.04641 16.9205 8.67718 16.3201 8.41052L15.8542 10.5541C16.4546 10.831 17.552 11.0669 18.701 11.0772C21.3925 11.0772 23.1524 9.76436 23.1524 7.72334M29.8294 10.9233H32.2L30.1399 1.10795H27.9557C27.4691 1.10795 27.0551 1.39513 26.8687 1.8259L23.0281 10.9131H25.7197L26.258 9.44641H29.5395L29.8501 10.9131L29.8294 10.9233ZM26.9722 7.44641L28.318 3.76436L29.0944 7.44641H26.9722ZM16.2166 1.10795L14.1048 10.9131H11.5478L13.6596 1.10795H16.2166Z" fill="white"/>
</svg>
